<svg width="38" height="41" viewBox="0 0 38 41" fill="none" xmlns="http://www.w3.org/2000/svg">
<path d="M26.9413 8.64711C23.7226 14.2222 32.0971 20.7171 26.7846 29.9186C23.4721 35.656 16.0756 37.5921 10.3923 34.3109C4.65489 30.9984 2.6875 23.656 6 17.9186C7.8125 14.7792 10.7739 13.0249 13.1103 12.3531C14.4222 11.9558 15.5712 13.3409 14.8837 14.5316L12.1962 19.1865C11.1024 21.081 11.6576 23.4944 13.6061 24.6194C15.4693 25.7673 17.9994 25.1351 19.1244 23.1865C21.8744 18.4234 12.5981 12.4904 24.9119 6.53722C26.2634 5.94631 27.6601 7.4022 26.9413 8.64711Z" fill="url(#paint0_linear_217_186)"/>
<defs>
<linearGradient id="paint0_linear_217_186" x1="27.8923" y1="4" x2="9.3923" y2="36.0429" gradientUnits="userSpaceOnUse">
<stop stop-color="#FF0000"/>
<stop offset="1" stop-color="#160000" stop-opacity="0.98"/>
</linearGradient>
</defs>
</svg>
