<svg width="165" height="68" viewBox="0 0 165 68" fill="none" xmlns="http://www.w3.org/2000/svg">
<g filter="url(#filter0_d_504_342)">
<path d="M52.1875 19.5938C52.1875 20.1771 51.9792 20.6667 51.5625 21.0625C51.1667 21.4792 50.6771 21.6875 50.0938 21.6875H37.5938C37.1979 21.7083 36.8646 21.8021 36.5938 21.9688C36.3438 22.1146 36.1562 22.2917 36.0312 22.5C35.9062 22.6875 35.8438 22.8854 35.8438 23.0938C35.8438 23.3021 35.9062 23.5104 36.0312 23.7188C36.1562 23.9062 36.3438 24.0833 36.5938 24.25C36.8646 24.3958 37.1979 24.4792 37.5938 24.5H46.4688C47.9271 24.5417 49.125 24.8854 50.0625 25.5312C51.0208 26.1562 51.6979 26.8854 52.0938 27.7188C52.5104 28.5312 52.7188 29.3646 52.7188 30.2188C52.7188 31.0521 52.5104 31.8854 52.0938 32.7188C51.6771 33.5312 51 34.2604 50.0625 34.9062C49.125 35.5312 47.9271 35.8438 46.4688 35.8438H46.2812C46.1562 35.8646 46.0312 35.875 45.9062 35.875H34.0938C33.5104 35.875 33.0104 35.6771 32.5938 35.2812C32.1979 34.8646 32 34.3646 32 33.7812C32 33.1979 32.2083 32.7083 32.625 32.3125C33.0208 31.8958 33.5104 31.6875 34.0938 31.6875H46.6562C47.0521 31.7083 47.375 31.6354 47.625 31.4688C47.8958 31.3021 48.0938 31.1146 48.2188 30.9062C48.3438 30.6771 48.4062 30.4479 48.4062 30.2188C48.4062 30.0729 48.3438 29.875 48.2188 29.625C48.0938 29.3542 47.8958 29.1354 47.625 28.9688C47.375 28.8021 47.0521 28.7083 46.6562 28.6875H37.7812C36.3229 28.6458 35.1146 28.3125 34.1562 27.6875C33.2188 27.0625 32.5417 26.3542 32.125 25.5625C31.7292 24.75 31.5312 23.9271 31.5312 23.0938C31.5312 22.2812 31.7396 21.4792 32.1562 20.6875C32.5729 19.875 33.25 19.1562 34.1875 18.5312C35.125 17.9062 36.3229 17.5729 37.7812 17.5312H37.9688C38.0938 17.5104 38.2188 17.5 38.3438 17.5H50.0938C50.6771 17.5 51.1667 17.7083 51.5625 18.125C51.9792 18.5208 52.1875 19.0104 52.1875 19.5938ZM60.4375 34.2812C60.3125 35.5312 59.625 36.2083 58.375 36.3125C57.7917 36.3125 57.2812 36.125 56.8438 35.75C56.4271 35.3542 56.2188 34.8646 56.2188 34.2812V19.5312C56.2396 18.9479 56.4583 18.4688 56.875 18.0938C57.2917 17.6979 57.7917 17.5 58.375 17.5H71.5C73.3333 17.5625 74.7188 17.9688 75.6562 18.7188C76.5938 19.4479 77.2708 20.2812 77.6875 21.2188C78.1042 22.1562 78.3125 23.1042 78.3125 24.0625C78.3125 25.0625 78.1042 26.0312 77.6875 26.9688C77.2917 27.9062 76.6146 28.75 75.6562 29.5C74.7188 30.2292 73.5208 30.5833 72.0625 30.5625H64.1875C63.6042 30.5625 63.1146 30.3542 62.7188 29.9375C62.3021 29.5417 62.0938 29.0521 62.0938 28.4688C62.0938 27.8854 62.2917 27.3958 62.6875 27C63.1042 26.5833 63.6042 26.375 64.1875 26.375H72.25C72.6458 26.375 72.9688 26.25 73.2188 26C73.4896 25.7292 73.6875 25.4271 73.8125 25.0938C73.9375 24.7396 74 24.3854 74 24.0312C74 23.6979 73.9375 23.3646 73.8125 23.0312C73.6875 22.6771 73.4896 22.375 73.2188 22.125C72.9688 21.8542 72.6458 21.7083 72.25 21.6875H61.25C60.7083 21.7083 60.4375 21.9792 60.4375 22.5V34.2812ZM117.844 34.3438C117.719 35.5938 117.031 36.2708 115.781 36.375C115.198 36.375 114.688 36.1875 114.25 35.8125C113.833 35.4167 113.625 34.9271 113.625 34.3438V19.5312C113.646 18.9479 113.865 18.4688 114.281 18.0938C114.698 17.6979 115.198 17.5 115.781 17.5H117.312H121.156H128.875C129 17.5 129.125 17.5104 129.25 17.5312H129.438C130.896 17.5729 132.094 17.9062 133.031 18.5312C133.969 19.1562 134.646 19.875 135.062 20.6875C135.479 21.4792 135.688 22.2812 135.688 23.0938C135.688 23.9271 135.479 24.75 135.062 25.5625C134.667 26.3542 133.99 27.0625 133.031 27.6875C132.094 28.3125 130.896 28.6458 129.438 28.6875H123.938C124.104 29.7292 124.448 30.5 124.969 31C125.469 31.5 126.104 31.75 126.875 31.75H133.625C134.208 31.7708 134.688 31.9896 135.062 32.4062C135.458 32.8229 135.656 33.3229 135.656 33.9062C135.635 34.4688 135.427 34.9479 135.031 35.3438C134.656 35.7188 134.188 35.9167 133.625 35.9375H126.312C124.771 35.9583 123.375 35.3542 122.125 34.125C120.875 32.8958 120.115 31.4375 119.844 29.75C119.469 27.875 119.281 26.8229 119.281 26.5938C119.281 26.0104 119.479 25.5208 119.875 25.125C120.292 24.7083 120.792 24.5 121.375 24.5H129.625C130.021 24.4792 130.344 24.3958 130.594 24.25C130.865 24.0833 131.062 23.9062 131.188 23.7188C131.312 23.5104 131.375 23.3021 131.375 23.0938C131.375 22.8854 131.312 22.6875 131.188 22.5C131.062 22.2917 130.865 22.1146 130.594 21.9688C130.344 21.8021 130.021 21.7083 129.625 21.6875H121.156H118.656C118.115 21.7083 117.844 21.9792 117.844 22.5V34.3438ZM138.469 19.5938C138.469 19.0104 138.667 18.5208 139.062 18.125C139.479 17.7083 139.979 17.5 140.562 17.5H158.75C159.333 17.5 159.833 17.6979 160.25 18.0938C160.646 18.5104 160.844 19.0104 160.844 19.5938C160.844 20.1771 160.635 20.6771 160.219 21.0938C159.823 21.4896 159.333 21.6875 158.75 21.6875H151.781V34.3438C151.656 35.5938 150.969 36.2708 149.719 36.375C149.135 36.375 148.625 36.1875 148.188 35.8125C147.771 35.4167 147.562 34.9271 147.562 34.3438V21.6875H140.562C139.979 21.6875 139.49 21.4792 139.094 21.0625C138.677 20.6667 138.469 20.1771 138.469 19.5938Z" fill="white"/>
<path d="M105.941 10.6471C102.723 16.2222 111.097 22.7171 105.785 31.9186C102.472 37.656 95.0756 39.5921 89.3923 36.3109C83.6549 32.9984 81.6875 25.656 85 19.9186C86.8125 16.7792 89.7739 15.0249 92.1103 14.3531C93.4222 13.9558 94.5712 15.3409 93.8837 16.5316L91.1962 21.1865C90.1024 23.081 90.6576 25.4944 92.6061 26.6194C94.4693 27.7673 96.9994 27.1351 98.1244 25.1865C100.874 20.4234 91.5981 14.4904 103.912 8.53722C105.263 7.94631 106.66 9.4022 105.941 10.6471Z" fill="url(#paint0_linear_504_342)"/>
<path d="M5.1875 19.5938C5.1875 19.0104 5.38542 18.5208 5.78125 18.125C6.19792 17.7083 6.69792 17.5 7.28125 17.5H19.3438C19.4688 17.5 19.5938 17.5104 19.7188 17.5312H19.9062C21.3646 17.5729 22.5625 17.9062 23.5 18.5312C24.4375 19.1562 25.1146 19.875 25.5312 20.6875C25.9479 21.4792 26.1562 22.2812 26.1562 23.0938C26.1562 23.9271 25.9479 24.75 25.5312 25.5625C25.1354 26.3542 24.4583 27.0625 23.5 27.6875C22.5625 28.3125 21.3646 28.6458 19.9062 28.6875H11.0312C10.6354 28.7083 10.3021 28.8021 10.0312 28.9688C9.78125 29.1354 9.59375 29.3542 9.46875 29.625C9.34375 29.875 9.28125 30.0729 9.28125 30.2188V30.875C9.28125 31.1458 9.34375 31.3542 9.46875 31.5C9.61458 31.6458 9.88542 31.7083 10.2812 31.6875H23.9062C24.4896 31.6875 24.9792 31.8958 25.375 32.3125C25.7917 32.7083 26 33.1979 26 33.7812C26 34.3646 25.7917 34.8646 25.375 35.2812C24.9792 35.6771 24.4896 35.875 23.9062 35.875H8.59375C7.42708 35.875 6.53125 35.5938 5.90625 35.0312C5.30208 34.4479 4.98958 33.625 4.96875 32.5625V30.2188C4.96875 29.3646 5.16667 28.5312 5.5625 27.7188C5.97917 26.8854 6.65625 26.1562 7.59375 25.5312C8.55208 24.8854 9.76042 24.5417 11.2188 24.5H20.0938C20.4896 24.4792 20.8125 24.3958 21.0625 24.25C21.3333 24.0833 21.5312 23.9062 21.6562 23.7188C21.7812 23.5104 21.8438 23.3021 21.8438 23.0938C21.8438 22.8854 21.7812 22.6875 21.6562 22.5C21.5312 22.2917 21.3333 22.1146 21.0625 21.9688C20.8125 21.8021 20.4896 21.7083 20.0938 21.6875H7.28125C6.69792 21.6875 6.20833 21.4792 5.8125 21.0625C5.39583 20.6667 5.1875 20.1771 5.1875 19.5938Z" fill="white"/>
</g>
<g filter="url(#filter1_d_504_342)">
<path d="M10.3153 51.9091C10.2599 51.4413 10.0353 51.0781 9.64134 50.8196C9.2474 50.5611 8.7642 50.4318 8.19176 50.4318C7.7732 50.4318 7.40696 50.4995 7.09304 50.6349C6.7822 50.7704 6.53906 50.9566 6.36364 51.1935C6.19129 51.4305 6.10511 51.6998 6.10511 52.0014C6.10511 52.2538 6.16513 52.4708 6.28516 52.6523C6.40826 52.8308 6.56522 52.9801 6.75604 53.1001C6.94685 53.2171 7.1469 53.314 7.35618 53.391C7.56546 53.4648 7.75781 53.5249 7.93324 53.571L8.89347 53.8295C9.13968 53.8942 9.41359 53.9834 9.7152 54.0973C10.0199 54.2112 10.3107 54.3666 10.5877 54.5636C10.8678 54.7575 11.0986 55.0067 11.2802 55.3114C11.4618 55.6161 11.5526 55.9901 11.5526 56.4332C11.5526 56.9441 11.4187 57.4058 11.1509 57.8182C10.8862 58.2306 10.4985 58.5584 9.98757 58.8015C9.47976 59.0446 8.86269 59.1662 8.13636 59.1662C7.45928 59.1662 6.87299 59.0569 6.37749 58.8384C5.88506 58.6199 5.49728 58.3152 5.21413 57.9244C4.93407 57.5335 4.77557 57.0795 4.73864 56.5625H5.92045C5.95123 56.9195 6.07126 57.215 6.28054 57.4489C6.4929 57.6797 6.76065 57.852 7.08381 57.9659C7.41004 58.0767 7.76089 58.1321 8.13636 58.1321C8.57339 58.1321 8.96579 58.0613 9.31357 57.9197C9.66134 57.7751 9.93679 57.575 10.1399 57.3196C10.343 57.0611 10.4446 56.7595 10.4446 56.4148C10.4446 56.1009 10.3569 55.8454 10.1815 55.6484C10.006 55.4515 9.77521 55.2914 9.48899 55.1683C9.20277 55.0452 8.89347 54.9375 8.56108 54.8452L7.39773 54.5128C6.65909 54.3004 6.07434 53.9973 5.64347 53.6033C5.21259 53.2094 4.99716 52.6939 4.99716 52.0568C4.99716 51.5275 5.14027 51.0658 5.42649 50.6719C5.71579 50.2749 6.10357 49.9671 6.58984 49.7486C7.07919 49.527 7.62547 49.4162 8.22869 49.4162C8.83807 49.4162 9.37973 49.5254 9.85369 49.744C10.3277 49.9594 10.7031 50.2549 10.9801 50.6303C11.2602 51.0058 11.4079 51.4321 11.4233 51.9091H10.3153ZM21.8369 48.973H22.9079C22.9079 49.5762 22.8171 50.084 22.6356 50.4964C22.4571 50.9058 22.1678 51.2166 21.7677 51.429C21.3707 51.6383 20.8459 51.7429 20.1934 51.7429V50.8381C20.6243 50.8381 20.9582 50.7673 21.1952 50.6257C21.4353 50.4841 21.6015 50.2749 21.6938 49.9979C21.7892 49.7209 21.8369 49.3793 21.8369 48.973ZM19.6395 49.5455H20.7844V55.8054C20.7844 56.4517 20.632 57.0288 20.3273 57.5366C20.0257 58.0413 19.5995 58.4399 19.0486 58.7322C18.4977 59.0215 17.8514 59.1662 17.1096 59.1662C16.3679 59.1662 15.7216 59.0215 15.1707 58.7322C14.6198 58.4399 14.192 58.0413 13.8873 57.5366C13.5857 57.0288 13.4349 56.4517 13.4349 55.8054V49.5455H14.5798V55.7131C14.5798 56.1747 14.6814 56.5856 14.8845 56.9457C15.0876 57.3027 15.3769 57.5843 15.7524 57.7905C16.1309 57.9936 16.5834 58.0952 17.1096 58.0952C17.6359 58.0952 18.0883 57.9936 18.4669 57.7905C18.8454 57.5843 19.1347 57.3027 19.3348 56.9457C19.5379 56.5856 19.6395 56.1747 19.6395 55.7131V49.5455ZM16.6111 48.5852L17.7375 46.4432H19.0116L17.5713 48.5852H16.6111ZM31.8974 52.5H30.7525C30.6848 52.1707 30.5663 51.8814 30.397 51.6321C30.2308 51.3828 30.0277 51.1735 29.7876 51.0043C29.5507 50.8319 29.2875 50.7027 28.9982 50.6165C28.7089 50.5303 28.4073 50.4872 28.0934 50.4872C27.521 50.4872 27.0024 50.6319 26.5376 50.9212C26.076 51.2105 25.7082 51.6367 25.4343 52.1999C25.1635 52.7631 25.0281 53.4541 25.0281 54.2727C25.0281 55.0914 25.1635 55.7823 25.4343 56.3455C25.7082 56.9087 26.076 57.335 26.5376 57.6243C27.0024 57.9136 27.521 58.0582 28.0934 58.0582C28.4073 58.0582 28.7089 58.0152 28.9982 57.929C29.2875 57.8428 29.5507 57.7151 29.7876 57.5458C30.0277 57.3735 30.2308 57.1626 30.397 56.9134C30.5663 56.661 30.6848 56.3717 30.7525 56.0455H31.8974C31.8112 56.5286 31.6542 56.9611 31.4265 57.3427C31.1987 57.7243 30.9156 58.049 30.5771 58.3168C30.2385 58.5814 29.8584 58.783 29.4368 58.9215C29.0182 59.06 28.5704 59.1293 28.0934 59.1293C27.2871 59.1293 26.57 58.9323 25.9421 58.5384C25.3143 58.1444 24.8203 57.5843 24.4602 56.858C24.1001 56.1316 23.9201 55.2699 23.9201 54.2727C23.9201 53.2756 24.1001 52.4138 24.4602 51.6875C24.8203 50.9612 25.3143 50.401 25.9421 50.0071C26.57 49.6132 27.2871 49.4162 28.0934 49.4162C28.5704 49.4162 29.0182 49.4854 29.4368 49.6239C29.8584 49.7624 30.2385 49.9656 30.5771 50.2333C30.9156 50.498 31.1987 50.8211 31.4265 51.2028C31.6542 51.5813 31.8112 52.0137 31.8974 52.5ZM37.4037 49.5455H38.7702L41.9832 57.3935H42.094L45.3071 49.5455H46.6736V59H45.6025V51.8168H45.5102L42.5557 59H41.5216L38.567 51.8168H38.4747V59H37.4037V49.5455ZM49.3569 59H48.1566L51.6282 49.5455H52.81L56.2816 59H55.0813L52.256 51.0412H52.1822L49.3569 59ZM49.8001 55.3068H54.6381V56.3224H49.8001V55.3068ZM52.2191 61.3452C52.0067 61.3452 51.8236 61.2728 51.6697 61.1282C51.5189 60.9835 51.4435 60.8097 51.4435 60.6065C51.4435 60.4034 51.5189 60.2295 51.6697 60.0849C51.8236 59.9402 52.0067 59.8679 52.2191 59.8679C52.4315 59.8679 52.613 59.9402 52.7638 60.0849C52.9177 60.2295 52.9947 60.4034 52.9947 60.6065C52.9947 60.8097 52.9177 60.9835 52.7638 61.1282C52.613 61.2728 52.4315 61.3452 52.2191 61.3452ZM65.2514 49.5455V59H64.1435L58.9915 51.5767H58.8991V59H57.7543V49.5455H58.8622L64.0327 56.9872H64.125V49.5455H65.2514ZM67.5423 59V49.5455H68.6872V53.7557H73.7284V49.5455H74.8733V59H73.7284V54.7713H68.6872V59H67.5423ZM80.3046 50.5611V49.5455H87.3955V50.5611H84.4225V59H83.2776V50.5611H80.3046ZM89.1625 59V49.5455H90.3074V53.7557H95.3485V49.5455H96.4934V59H95.3485V54.7713H90.3074V59H89.1625ZM98.7855 59V49.5455H104.491V50.5611H99.9304V53.7557H104.196V54.7713H99.9304V57.9844H104.565V59H98.7855ZM102.257 47.108L104.011 48.7884H102.866L101.611 47.625L100.374 48.7884H99.2287L100.983 47.108H102.257ZM104.196 47.902H103.42V47.0526C103.679 47.0341 103.87 47.0002 103.993 46.951C104.116 46.8987 104.178 46.8033 104.178 46.6648C104.178 46.517 104.094 46.4124 103.928 46.3509C103.765 46.2893 103.559 46.2585 103.31 46.2585L103.347 45.6491C103.901 45.6491 104.319 45.743 104.602 45.9308C104.885 46.1185 105.027 46.3693 105.027 46.6832C105.027 46.9602 104.941 47.1618 104.768 47.288C104.599 47.4111 104.408 47.4865 104.196 47.5142V47.902ZM109.694 50.5611V49.5455H116.785V50.5611H113.812V59H112.667V50.5611H109.694ZM118.552 59V49.5455H119.697V53.7557H124.738V49.5455H125.883V59H124.738V54.7713H119.697V59H118.552ZM128.563 59H127.363L130.834 49.5455H132.016L135.488 59H134.287L131.462 51.0412H131.388L128.563 59ZM129.006 55.3068H133.844V56.3224H129.006V55.3068ZM144.493 54.2727C144.493 55.2699 144.313 56.1316 143.953 56.858C143.593 57.5843 143.099 58.1444 142.471 58.5384C141.843 58.9323 141.126 59.1293 140.32 59.1293C139.514 59.1293 138.797 58.9323 138.169 58.5384C137.541 58.1444 137.047 57.5843 136.687 56.858C136.327 56.1316 136.147 55.2699 136.147 54.2727C136.147 53.2756 136.327 52.4138 136.687 51.6875C137.047 50.9612 137.541 50.401 138.169 50.0071C138.797 49.6132 139.514 49.4162 140.32 49.4162C141.126 49.4162 141.843 49.6132 142.471 50.0071C143.099 50.401 143.593 50.9612 143.953 51.6875C144.313 52.4138 144.493 53.2756 144.493 54.2727ZM143.385 54.2727C143.385 53.4541 143.248 52.7631 142.974 52.1999C142.704 51.6367 142.336 51.2105 141.871 50.9212C141.409 50.6319 140.892 50.4872 140.32 50.4872C139.748 50.4872 139.229 50.6319 138.764 50.9212C138.303 51.2105 137.935 51.6367 137.661 52.1999C137.39 52.7631 137.255 53.4541 137.255 54.2727C137.255 55.0914 137.39 55.7823 137.661 56.3455C137.935 56.9087 138.303 57.335 138.764 57.6243C139.229 57.9136 139.748 58.0582 140.32 58.0582C140.892 58.0582 141.409 57.9136 141.871 57.6243C142.336 57.335 142.704 56.9087 142.974 56.3455C143.248 55.7823 143.385 55.0914 143.385 54.2727Z" fill="white"/>
</g>
<defs>
<filter id="filter0_d_504_342" x="0.96875" y="0.165039" width="163.875" height="48.1458" filterUnits="userSpaceOnUse" color-interpolation-filters="sRGB">
<feFlood flood-opacity="0" result="BackgroundImageFix"/>
<feColorMatrix in="SourceAlpha" type="matrix" values="0 0 0 0 0 0 0 0 0 0 0 0 0 0 0 0 0 0 127 0" result="hardAlpha"/>
<feOffset dy="2"/>
<feGaussianBlur stdDeviation="2"/>
<feComposite in2="hardAlpha" operator="out"/>
<feColorMatrix type="matrix" values="0 0 0 0 0.741667 0 0 0 0 0 0 0 0 0 0 0 0 0 1 0"/>
<feBlend mode="normal" in2="BackgroundImageFix" result="effect1_dropShadow_504_342"/>
<feBlend mode="normal" in="SourceGraphic" in2="effect1_dropShadow_504_342" result="shape"/>
</filter>
<filter id="filter1_d_504_342" x="0.738647" y="43.6492" width="147.755" height="23.696" filterUnits="userSpaceOnUse" color-interpolation-filters="sRGB">
<feFlood flood-opacity="0" result="BackgroundImageFix"/>
<feColorMatrix in="SourceAlpha" type="matrix" values="0 0 0 0 0 0 0 0 0 0 0 0 0 0 0 0 0 0 127 0" result="hardAlpha"/>
<feOffset dy="2"/>
<feGaussianBlur stdDeviation="2"/>
<feComposite in2="hardAlpha" operator="out"/>
<feColorMatrix type="matrix" values="0 0 0 0 0.741667 0 0 0 0 0 0 0 0 0 0 0 0 0 1 0"/>
<feBlend mode="normal" in2="BackgroundImageFix" result="effect1_dropShadow_504_342"/>
<feBlend mode="normal" in="SourceGraphic" in2="effect1_dropShadow_504_342" result="shape"/>
</filter>
<linearGradient id="paint0_linear_504_342" x1="106.892" y1="6" x2="88.3923" y2="38.0429" gradientUnits="userSpaceOnUse">
<stop stop-color="white"/>
<stop offset="1" stop-color="white"/>
</linearGradient>
</defs>
</svg>
