<svg width="160" height="62" viewBox="0 0 160 62" fill="none" xmlns="http://www.w3.org/2000/svg">
<path d="M49.1875 19.5938C49.1875 20.1771 48.9792 20.6667 48.5625 21.0625C48.1667 21.4792 47.6771 21.6875 47.0938 21.6875H34.5938C34.1979 21.7083 33.8646 21.8021 33.5938 21.9688C33.3438 22.1146 33.1562 22.2917 33.0312 22.5C32.9062 22.6875 32.8438 22.8854 32.8438 23.0938C32.8438 23.3021 32.9062 23.5104 33.0312 23.7188C33.1562 23.9062 33.3438 24.0833 33.5938 24.25C33.8646 24.3958 34.1979 24.4792 34.5938 24.5H43.4688C44.9271 24.5417 46.125 24.8854 47.0625 25.5312C48.0208 26.1562 48.6979 26.8854 49.0938 27.7188C49.5104 28.5312 49.7188 29.3646 49.7188 30.2188C49.7188 31.0521 49.5104 31.8854 49.0938 32.7188C48.6771 33.5312 48 34.2604 47.0625 34.9062C46.125 35.5312 44.9271 35.8438 43.4688 35.8438H43.2812C43.1562 35.8646 43.0312 35.875 42.9062 35.875H31.0938C30.5104 35.875 30.0104 35.6771 29.5938 35.2812C29.1979 34.8646 29 34.3646 29 33.7812C29 33.1979 29.2083 32.7083 29.625 32.3125C30.0208 31.8958 30.5104 31.6875 31.0938 31.6875H43.6562C44.0521 31.7083 44.375 31.6354 44.625 31.4688C44.8958 31.3021 45.0938 31.1146 45.2188 30.9062C45.3438 30.6771 45.4062 30.4479 45.4062 30.2188C45.4062 30.0729 45.3438 29.875 45.2188 29.625C45.0938 29.3542 44.8958 29.1354 44.625 28.9688C44.375 28.8021 44.0521 28.7083 43.6562 28.6875H34.7812C33.3229 28.6458 32.1146 28.3125 31.1562 27.6875C30.2188 27.0625 29.5417 26.3542 29.125 25.5625C28.7292 24.75 28.5312 23.9271 28.5312 23.0938C28.5312 22.2812 28.7396 21.4792 29.1562 20.6875C29.5729 19.875 30.25 19.1562 31.1875 18.5312C32.125 17.9062 33.3229 17.5729 34.7812 17.5312H34.9688C35.0938 17.5104 35.2188 17.5 35.3438 17.5H47.0938C47.6771 17.5 48.1667 17.7083 48.5625 18.125C48.9792 18.5208 49.1875 19.0104 49.1875 19.5938ZM57.4375 34.2812C57.3125 35.5312 56.625 36.2083 55.375 36.3125C54.7917 36.3125 54.2812 36.125 53.8438 35.75C53.4271 35.3542 53.2188 34.8646 53.2188 34.2812V19.5312C53.2396 18.9479 53.4583 18.4688 53.875 18.0938C54.2917 17.6979 54.7917 17.5 55.375 17.5H68.5C70.3333 17.5625 71.7188 17.9688 72.6562 18.7188C73.5938 19.4479 74.2708 20.2812 74.6875 21.2188C75.1042 22.1562 75.3125 23.1042 75.3125 24.0625C75.3125 25.0625 75.1042 26.0312 74.6875 26.9688C74.2917 27.9062 73.6146 28.75 72.6562 29.5C71.7188 30.2292 70.5208 30.5833 69.0625 30.5625H61.1875C60.6042 30.5625 60.1146 30.3542 59.7188 29.9375C59.3021 29.5417 59.0938 29.0521 59.0938 28.4688C59.0938 27.8854 59.2917 27.3958 59.6875 27C60.1042 26.5833 60.6042 26.375 61.1875 26.375H69.25C69.6458 26.375 69.9688 26.25 70.2188 26C70.4896 25.7292 70.6875 25.4271 70.8125 25.0938C70.9375 24.7396 71 24.3854 71 24.0312C71 23.6979 70.9375 23.3646 70.8125 23.0312C70.6875 22.6771 70.4896 22.375 70.2188 22.125C69.9688 21.8542 69.6458 21.7083 69.25 21.6875H58.25C57.7083 21.7083 57.4375 21.9792 57.4375 22.5V34.2812ZM114.844 34.3438C114.719 35.5938 114.031 36.2708 112.781 36.375C112.198 36.375 111.688 36.1875 111.25 35.8125C110.833 35.4167 110.625 34.9271 110.625 34.3438V19.5312C110.646 18.9479 110.865 18.4688 111.281 18.0938C111.698 17.6979 112.198 17.5 112.781 17.5H114.312H118.156H125.875C126 17.5 126.125 17.5104 126.25 17.5312H126.438C127.896 17.5729 129.094 17.9062 130.031 18.5312C130.969 19.1562 131.646 19.875 132.062 20.6875C132.479 21.4792 132.688 22.2812 132.688 23.0938C132.688 23.9271 132.479 24.75 132.062 25.5625C131.667 26.3542 130.99 27.0625 130.031 27.6875C129.094 28.3125 127.896 28.6458 126.438 28.6875H120.938C121.104 29.7292 121.448 30.5 121.969 31C122.469 31.5 123.104 31.75 123.875 31.75H130.625C131.208 31.7708 131.688 31.9896 132.062 32.4062C132.458 32.8229 132.656 33.3229 132.656 33.9062C132.635 34.4688 132.427 34.9479 132.031 35.3438C131.656 35.7188 131.188 35.9167 130.625 35.9375H123.312C121.771 35.9583 120.375 35.3542 119.125 34.125C117.875 32.8958 117.115 31.4375 116.844 29.75C116.469 27.875 116.281 26.8229 116.281 26.5938C116.281 26.0104 116.479 25.5208 116.875 25.125C117.292 24.7083 117.792 24.5 118.375 24.5H126.625C127.021 24.4792 127.344 24.3958 127.594 24.25C127.865 24.0833 128.062 23.9062 128.188 23.7188C128.312 23.5104 128.375 23.3021 128.375 23.0938C128.375 22.8854 128.312 22.6875 128.188 22.5C128.062 22.2917 127.865 22.1146 127.594 21.9688C127.344 21.8021 127.021 21.7083 126.625 21.6875H118.156H115.656C115.115 21.7083 114.844 21.9792 114.844 22.5V34.3438ZM135.469 19.5938C135.469 19.0104 135.667 18.5208 136.062 18.125C136.479 17.7083 136.979 17.5 137.562 17.5H155.75C156.333 17.5 156.833 17.6979 157.25 18.0938C157.646 18.5104 157.844 19.0104 157.844 19.5938C157.844 20.1771 157.635 20.6771 157.219 21.0938C156.823 21.4896 156.333 21.6875 155.75 21.6875H148.781V34.3438C148.656 35.5938 147.969 36.2708 146.719 36.375C146.135 36.375 145.625 36.1875 145.188 35.8125C144.771 35.4167 144.562 34.9271 144.562 34.3438V21.6875H137.562C136.979 21.6875 136.49 21.4792 136.094 21.0625C135.677 20.6667 135.469 20.1771 135.469 19.5938Z" fill="white"/>
<path d="M102.941 10.6471C99.7226 16.2222 108.097 22.7171 102.785 31.9186C99.4721 37.656 92.0756 39.5921 86.3923 36.3109C80.6549 32.9984 78.6875 25.656 82 19.9186C83.8125 16.7792 86.7739 15.0249 89.1103 14.3531C90.4222 13.9558 91.5712 15.3409 90.8837 16.5316L88.1962 21.1865C87.1024 23.081 87.6576 25.4944 89.6061 26.6194C91.4693 27.7673 93.9994 27.1351 95.1244 25.1865C97.8744 20.4234 88.5981 14.4904 100.912 8.53722C102.263 7.94631 103.66 9.4022 102.941 10.6471Z" fill="url(#paint0_linear_504_342)"/>
<path d="M2.1875 19.5938C2.1875 19.0104 2.38542 18.5208 2.78125 18.125C3.19792 17.7083 3.69792 17.5 4.28125 17.5H16.3438C16.4688 17.5 16.5938 17.5104 16.7188 17.5312H16.9062C18.3646 17.5729 19.5625 17.9062 20.5 18.5312C21.4375 19.1562 22.1146 19.875 22.5312 20.6875C22.9479 21.4792 23.1562 22.2812 23.1562 23.0938C23.1562 23.9271 22.9479 24.75 22.5312 25.5625C22.1354 26.3542 21.4583 27.0625 20.5 27.6875C19.5625 28.3125 18.3646 28.6458 16.9062 28.6875H8.03125C7.63542 28.7083 7.30208 28.8021 7.03125 28.9688C6.78125 29.1354 6.59375 29.3542 6.46875 29.625C6.34375 29.875 6.28125 30.0729 6.28125 30.2188V30.875C6.28125 31.1458 6.34375 31.3542 6.46875 31.5C6.61458 31.6458 6.88542 31.7083 7.28125 31.6875H20.9062C21.4896 31.6875 21.9792 31.8958 22.375 32.3125C22.7917 32.7083 23 33.1979 23 33.7812C23 34.3646 22.7917 34.8646 22.375 35.2812C21.9792 35.6771 21.4896 35.875 20.9062 35.875H5.59375C4.42708 35.875 3.53125 35.5938 2.90625 35.0312C2.30208 34.4479 1.98958 33.625 1.96875 32.5625V30.2188C1.96875 29.3646 2.16667 28.5312 2.5625 27.7188C2.97917 26.8854 3.65625 26.1562 4.59375 25.5312C5.55208 24.8854 6.76042 24.5417 8.21875 24.5H17.0938C17.4896 24.4792 17.8125 24.3958 18.0625 24.25C18.3333 24.0833 18.5312 23.9062 18.6562 23.7188C18.7812 23.5104 18.8438 23.3021 18.8438 23.0938C18.8438 22.8854 18.7812 22.6875 18.6562 22.5C18.5312 22.2917 18.3333 22.1146 18.0625 21.9688C17.8125 21.8021 17.4896 21.7083 17.0938 21.6875H4.28125C3.69792 21.6875 3.20833 21.4792 2.8125 21.0625C2.39583 20.6667 2.1875 20.1771 2.1875 19.5938Z" fill="white"/>
<path d="M7.31534 51.9091C7.25994 51.4413 7.03527 51.0781 6.64134 50.8196C6.2474 50.5611 5.7642 50.4318 5.19176 50.4318C4.7732 50.4318 4.40696 50.4995 4.09304 50.6349C3.7822 50.7704 3.53906 50.9566 3.36364 51.1935C3.19129 51.4305 3.10511 51.6998 3.10511 52.0014C3.10511 52.2538 3.16513 52.4708 3.28516 52.6523C3.40826 52.8308 3.56522 52.9801 3.75604 53.1001C3.94685 53.2171 4.1469 53.314 4.35618 53.391C4.56546 53.4648 4.75781 53.5249 4.93324 53.571L5.89347 53.8295C6.13968 53.8942 6.41359 53.9834 6.7152 54.0973C7.01989 54.2112 7.31072 54.3666 7.58771 54.5636C7.86778 54.7575 8.0986 55.0067 8.28019 55.3114C8.46177 55.6161 8.55256 55.9901 8.55256 56.4332C8.55256 56.9441 8.41868 57.4058 8.15092 57.8182C7.88625 58.2306 7.49846 58.5584 6.98757 58.8015C6.47976 59.0446 5.86269 59.1662 5.13636 59.1662C4.45928 59.1662 3.87299 59.0569 3.37749 58.8384C2.88506 58.6199 2.49728 58.3152 2.21413 57.9244C1.93407 57.5335 1.77557 57.0795 1.73864 56.5625H2.92045C2.95123 56.9195 3.07126 57.215 3.28054 57.4489C3.4929 57.6797 3.76065 57.852 4.08381 57.9659C4.41004 58.0767 4.76089 58.1321 5.13636 58.1321C5.57339 58.1321 5.96579 58.0613 6.31357 57.9197C6.66134 57.7751 6.93679 57.575 7.13992 57.3196C7.34304 57.0611 7.4446 56.7595 7.4446 56.4148C7.4446 56.1009 7.35689 55.8454 7.18146 55.6484C7.00604 55.4515 6.77521 55.2914 6.48899 55.1683C6.20277 55.0452 5.89347 54.9375 5.56108 54.8452L4.39773 54.5128C3.65909 54.3004 3.07434 53.9973 2.64347 53.6033C2.21259 53.2094 1.99716 52.6939 1.99716 52.0568C1.99716 51.5275 2.14027 51.0658 2.42649 50.6719C2.71579 50.2749 3.10357 49.9671 3.58984 49.7486C4.07919 49.527 4.62547 49.4162 5.22869 49.4162C5.83807 49.4162 6.37973 49.5254 6.85369 49.744C7.32765 49.9594 7.70313 50.2549 7.98011 50.6303C8.26018 51.0058 8.40791 51.4321 8.4233 51.9091H7.31534ZM18.8369 48.973H19.9079C19.9079 49.5762 19.8171 50.084 19.6356 50.4964C19.4571 50.9058 19.1678 51.2166 18.7677 51.429C18.3707 51.6383 17.8459 51.7429 17.1934 51.7429V50.8381C17.6243 50.8381 17.9582 50.7673 18.1952 50.6257C18.4353 50.4841 18.6015 50.2749 18.6938 49.9979C18.7892 49.7209 18.8369 49.3793 18.8369 48.973ZM16.6395 49.5455H17.7844V55.8054C17.7844 56.4517 17.632 57.0288 17.3273 57.5366C17.0257 58.0413 16.5995 58.4399 16.0486 58.7322C15.4977 59.0215 14.8514 59.1662 14.1096 59.1662C13.3679 59.1662 12.7216 59.0215 12.1707 58.7322C11.6198 58.4399 11.192 58.0413 10.8873 57.5366C10.5857 57.0288 10.4349 56.4517 10.4349 55.8054V49.5455H11.5798V55.7131C11.5798 56.1747 11.6814 56.5856 11.8845 56.9457C12.0876 57.3027 12.3769 57.5843 12.7524 57.7905C13.1309 57.9936 13.5834 58.0952 14.1096 58.0952C14.6359 58.0952 15.0883 57.9936 15.4669 57.7905C15.8454 57.5843 16.1347 57.3027 16.3348 56.9457C16.5379 56.5856 16.6395 56.1747 16.6395 55.7131V49.5455ZM13.6111 48.5852L14.7375 46.4432H16.0116L14.5713 48.5852H13.6111ZM28.8974 52.5H27.7525C27.6848 52.1707 27.5663 51.8814 27.397 51.6321C27.2308 51.3828 27.0277 51.1735 26.7876 51.0043C26.5507 50.8319 26.2875 50.7027 25.9982 50.6165C25.7089 50.5303 25.4073 50.4872 25.0934 50.4872C24.521 50.4872 24.0024 50.6319 23.5376 50.9212C23.076 51.2105 22.7082 51.6367 22.4343 52.1999C22.1635 52.7631 22.0281 53.4541 22.0281 54.2727C22.0281 55.0914 22.1635 55.7823 22.4343 56.3455C22.7082 56.9087 23.076 57.335 23.5376 57.6243C24.0024 57.9136 24.521 58.0582 25.0934 58.0582C25.4073 58.0582 25.7089 58.0152 25.9982 57.929C26.2875 57.8428 26.5507 57.7151 26.7876 57.5458C27.0277 57.3735 27.2308 57.1626 27.397 56.9134C27.5663 56.661 27.6848 56.3717 27.7525 56.0455H28.8974C28.8112 56.5286 28.6542 56.9611 28.4265 57.3427C28.1987 57.7243 27.9156 58.049 27.5771 58.3168C27.2385 58.5814 26.8584 58.783 26.4368 58.9215C26.0182 59.06 25.5704 59.1293 25.0934 59.1293C24.2871 59.1293 23.57 58.9323 22.9421 58.5384C22.3143 58.1444 21.8203 57.5843 21.4602 56.858C21.1001 56.1316 20.9201 55.2699 20.9201 54.2727C20.9201 53.2756 21.1001 52.4138 21.4602 51.6875C21.8203 50.9612 22.3143 50.401 22.9421 50.0071C23.57 49.6132 24.2871 49.4162 25.0934 49.4162C25.5704 49.4162 26.0182 49.4854 26.4368 49.6239C26.8584 49.7624 27.2385 49.9656 27.5771 50.2333C27.9156 50.498 28.1987 50.8211 28.4265 51.2028C28.6542 51.5813 28.8112 52.0137 28.8974 52.5ZM34.4037 49.5455H35.7702L38.9832 57.3935H39.094L42.3071 49.5455H43.6736V59H42.6025V51.8168H42.5102L39.5557 59H38.5216L35.567 51.8168H35.4747V59H34.4037V49.5455ZM46.3569 59H45.1566L48.6282 49.5455H49.81L53.2816 59H52.0813L49.256 51.0412H49.1822L46.3569 59ZM46.8001 55.3068H51.6381V56.3224H46.8001V55.3068ZM49.2191 61.3452C49.0067 61.3452 48.8236 61.2728 48.6697 61.1282C48.5189 60.9835 48.4435 60.8097 48.4435 60.6065C48.4435 60.4034 48.5189 60.2295 48.6697 60.0849C48.8236 59.9402 49.0067 59.8679 49.2191 59.8679C49.4315 59.8679 49.613 59.9402 49.7638 60.0849C49.9177 60.2295 49.9947 60.4034 49.9947 60.6065C49.9947 60.8097 49.9177 60.9835 49.7638 61.1282C49.613 61.2728 49.4315 61.3452 49.2191 61.3452ZM62.2514 49.5455V59H61.1435L55.9915 51.5767H55.8991V59H54.7543V49.5455H55.8622L61.0327 56.9872H61.125V49.5455H62.2514ZM64.5423 59V49.5455H65.6872V53.7557H70.7284V49.5455H71.8733V59H70.7284V54.7713H65.6872V59H64.5423ZM77.3046 50.5611V49.5455H84.3955V50.5611H81.4225V59H80.2776V50.5611H77.3046ZM86.1625 59V49.5455H87.3074V53.7557H92.3485V49.5455H93.4934V59H92.3485V54.7713H87.3074V59H86.1625ZM95.7855 59V49.5455H101.491V50.5611H96.9304V53.7557H101.196V54.7713H96.9304V57.9844H101.565V59H95.7855ZM99.2571 47.108L101.011 48.7884H99.8665L98.6108 47.625L97.3736 48.7884H96.2287L97.983 47.108H99.2571ZM101.196 47.902H100.42V47.0526C100.679 47.0341 100.87 47.0002 100.993 46.951C101.116 46.8987 101.178 46.8033 101.178 46.6648C101.178 46.517 101.094 46.4124 100.928 46.3509C100.765 46.2893 100.559 46.2585 100.31 46.2585L100.347 45.6491C100.901 45.6491 101.319 45.743 101.602 45.9308C101.885 46.1185 102.027 46.3693 102.027 46.6832C102.027 46.9602 101.941 47.1618 101.768 47.288C101.599 47.4111 101.408 47.4865 101.196 47.5142V47.902ZM106.694 50.5611V49.5455H113.785V50.5611H110.812V59H109.667V50.5611H106.694ZM115.552 59V49.5455H116.697V53.7557H121.738V49.5455H122.883V59H121.738V54.7713H116.697V59H115.552ZM125.563 59H124.363L127.834 49.5455H129.016L132.488 59H131.287L128.462 51.0412H128.388L125.563 59ZM126.006 55.3068H130.844V56.3224H126.006V55.3068ZM141.493 54.2727C141.493 55.2699 141.313 56.1316 140.953 56.858C140.593 57.5843 140.099 58.1444 139.471 58.5384C138.843 58.9323 138.126 59.1293 137.32 59.1293C136.514 59.1293 135.797 58.9323 135.169 58.5384C134.541 58.1444 134.047 57.5843 133.687 56.858C133.327 56.1316 133.147 55.2699 133.147 54.2727C133.147 53.2756 133.327 52.4138 133.687 51.6875C134.047 50.9612 134.541 50.401 135.169 50.0071C135.797 49.6132 136.514 49.4162 137.32 49.4162C138.126 49.4162 138.843 49.6132 139.471 50.0071C140.099 50.401 140.593 50.9612 140.953 51.6875C141.313 52.4138 141.493 53.2756 141.493 54.2727ZM140.385 54.2727C140.385 53.4541 140.248 52.7631 139.974 52.1999C139.704 51.6367 139.336 51.2105 138.871 50.9212C138.409 50.6319 137.892 50.4872 137.32 50.4872C136.748 50.4872 136.229 50.6319 135.764 50.9212C135.303 51.2105 134.935 51.6367 134.661 52.1999C134.39 52.7631 134.255 53.4541 134.255 54.2727C134.255 55.0914 134.39 55.7823 134.661 56.3455C134.935 56.9087 135.303 57.335 135.764 57.6243C136.229 57.9136 136.748 58.0582 137.32 58.0582C137.892 58.0582 138.409 57.9136 138.871 57.6243C139.336 57.335 139.704 56.9087 139.974 56.3455C140.248 55.7823 140.385 55.0914 140.385 54.2727Z" fill="white"/>
<defs>
<linearGradient id="paint0_linear_504_342" x1="103.892" y1="6" x2="85.3923" y2="38.0429" gradientUnits="userSpaceOnUse">
<stop stop-color="white"/>
<stop offset="1" stop-color="white"/>
</linearGradient>
</defs>
</svg>
