<svg width="160" height="45" viewBox="0 0 160 45" fill="none" xmlns="http://www.w3.org/2000/svg">
<path d="M49.1875 19.5938C49.1875 20.1771 48.9792 20.6667 48.5625 21.0625C48.1667 21.4792 47.6771 21.6875 47.0938 21.6875H34.5938C34.1979 21.7083 33.8646 21.8021 33.5938 21.9688C33.3438 22.1146 33.1562 22.2917 33.0312 22.5C32.9062 22.6875 32.8438 22.8854 32.8438 23.0938C32.8438 23.3021 32.9062 23.5104 33.0312 23.7188C33.1562 23.9062 33.3438 24.0833 33.5938 24.25C33.8646 24.3958 34.1979 24.4792 34.5938 24.5H43.4688C44.9271 24.5417 46.125 24.8854 47.0625 25.5312C48.0208 26.1562 48.6979 26.8854 49.0938 27.7188C49.5104 28.5312 49.7188 29.3646 49.7188 30.2188C49.7188 31.0521 49.5104 31.8854 49.0938 32.7188C48.6771 33.5312 48 34.2604 47.0625 34.9062C46.125 35.5312 44.9271 35.8438 43.4688 35.8438H43.2812C43.1562 35.8646 43.0312 35.875 42.9062 35.875H31.0938C30.5104 35.875 30.0104 35.6771 29.5938 35.2812C29.1979 34.8646 29 34.3646 29 33.7812C29 33.1979 29.2083 32.7083 29.625 32.3125C30.0208 31.8958 30.5104 31.6875 31.0938 31.6875H43.6562C44.0521 31.7083 44.375 31.6354 44.625 31.4688C44.8958 31.3021 45.0938 31.1146 45.2188 30.9062C45.3438 30.6771 45.4062 30.4479 45.4062 30.2188C45.4062 30.0729 45.3438 29.875 45.2188 29.625C45.0938 29.3542 44.8958 29.1354 44.625 28.9688C44.375 28.8021 44.0521 28.7083 43.6562 28.6875H34.7812C33.3229 28.6458 32.1146 28.3125 31.1562 27.6875C30.2188 27.0625 29.5417 26.3542 29.125 25.5625C28.7292 24.75 28.5312 23.9271 28.5312 23.0938C28.5312 22.2812 28.7396 21.4792 29.1562 20.6875C29.5729 19.875 30.25 19.1562 31.1875 18.5312C32.125 17.9062 33.3229 17.5729 34.7812 17.5312H34.9688C35.0938 17.5104 35.2188 17.5 35.3438 17.5H47.0938C47.6771 17.5 48.1667 17.7083 48.5625 18.125C48.9792 18.5208 49.1875 19.0104 49.1875 19.5938ZM57.4375 34.2812C57.3125 35.5312 56.625 36.2083 55.375 36.3125C54.7917 36.3125 54.2812 36.125 53.8438 35.75C53.4271 35.3542 53.2188 34.8646 53.2188 34.2812V19.5312C53.2396 18.9479 53.4583 18.4688 53.875 18.0938C54.2917 17.6979 54.7917 17.5 55.375 17.5H68.5C70.3333 17.5625 71.7188 17.9688 72.6562 18.7188C73.5938 19.4479 74.2708 20.2812 74.6875 21.2188C75.1042 22.1562 75.3125 23.1042 75.3125 24.0625C75.3125 25.0625 75.1042 26.0312 74.6875 26.9688C74.2917 27.9062 73.6146 28.75 72.6562 29.5C71.7188 30.2292 70.5208 30.5833 69.0625 30.5625H61.1875C60.6042 30.5625 60.1146 30.3542 59.7188 29.9375C59.3021 29.5417 59.0938 29.0521 59.0938 28.4688C59.0938 27.8854 59.2917 27.3958 59.6875 27C60.1042 26.5833 60.6042 26.375 61.1875 26.375H69.25C69.6458 26.375 69.9688 26.25 70.2188 26C70.4896 25.7292 70.6875 25.4271 70.8125 25.0938C70.9375 24.7396 71 24.3854 71 24.0312C71 23.6979 70.9375 23.3646 70.8125 23.0312C70.6875 22.6771 70.4896 22.375 70.2188 22.125C69.9688 21.8542 69.6458 21.7083 69.25 21.6875H58.25C57.7083 21.7083 57.4375 21.9792 57.4375 22.5V34.2812ZM114.844 34.3438C114.719 35.5938 114.031 36.2708 112.781 36.375C112.198 36.375 111.688 36.1875 111.25 35.8125C110.833 35.4167 110.625 34.9271 110.625 34.3438V19.5312C110.646 18.9479 110.865 18.4688 111.281 18.0938C111.698 17.6979 112.198 17.5 112.781 17.5H114.312H118.156H125.875C126 17.5 126.125 17.5104 126.25 17.5312H126.438C127.896 17.5729 129.094 17.9062 130.031 18.5312C130.969 19.1562 131.646 19.875 132.062 20.6875C132.479 21.4792 132.688 22.2812 132.688 23.0938C132.688 23.9271 132.479 24.75 132.062 25.5625C131.667 26.3542 130.99 27.0625 130.031 27.6875C129.094 28.3125 127.896 28.6458 126.438 28.6875H120.938C121.104 29.7292 121.448 30.5 121.969 31C122.469 31.5 123.104 31.75 123.875 31.75H130.625C131.208 31.7708 131.688 31.9896 132.062 32.4062C132.458 32.8229 132.656 33.3229 132.656 33.9062C132.635 34.4688 132.427 34.9479 132.031 35.3438C131.656 35.7188 131.188 35.9167 130.625 35.9375H123.312C121.771 35.9583 120.375 35.3542 119.125 34.125C117.875 32.8958 117.115 31.4375 116.844 29.75C116.469 27.875 116.281 26.8229 116.281 26.5938C116.281 26.0104 116.479 25.5208 116.875 25.125C117.292 24.7083 117.792 24.5 118.375 24.5H126.625C127.021 24.4792 127.344 24.3958 127.594 24.25C127.865 24.0833 128.062 23.9062 128.188 23.7188C128.312 23.5104 128.375 23.3021 128.375 23.0938C128.375 22.8854 128.312 22.6875 128.188 22.5C128.062 22.2917 127.865 22.1146 127.594 21.9688C127.344 21.8021 127.021 21.7083 126.625 21.6875H118.156H115.656C115.115 21.7083 114.844 21.9792 114.844 22.5V34.3438ZM135.469 19.5938C135.469 19.0104 135.667 18.5208 136.062 18.125C136.479 17.7083 136.979 17.5 137.562 17.5H155.75C156.333 17.5 156.833 17.6979 157.25 18.0938C157.646 18.5104 157.844 19.0104 157.844 19.5938C157.844 20.1771 157.635 20.6771 157.219 21.0938C156.823 21.4896 156.333 21.6875 155.75 21.6875H148.781V34.3438C148.656 35.5938 147.969 36.2708 146.719 36.375C146.135 36.375 145.625 36.1875 145.188 35.8125C144.771 35.4167 144.562 34.9271 144.562 34.3438V21.6875H137.562C136.979 21.6875 136.49 21.4792 136.094 21.0625C135.677 20.6667 135.469 20.1771 135.469 19.5938Z" fill="black"/>
<path d="M102.941 10.6471C99.7226 16.2222 108.097 22.7171 102.785 31.9186C99.4721 37.656 92.0756 39.5921 86.3923 36.3109C80.6549 32.9984 78.6875 25.656 82 19.9186C83.8125 16.7792 86.7739 15.0249 89.1103 14.3531C90.4222 13.9558 91.5712 15.3409 90.8837 16.5316L88.1962 21.1865C87.1024 23.081 87.6576 25.4944 89.6061 26.6194C91.4693 27.7673 93.9994 27.1351 95.1244 25.1865C97.8744 20.4234 88.5981 14.4904 100.912 8.53722C102.263 7.94631 103.66 9.4022 102.941 10.6471Z" fill="url(#paint0_linear_14_17)"/>
<path d="M2.1875 19.5938C2.1875 19.0104 2.38542 18.5208 2.78125 18.125C3.19792 17.7083 3.69792 17.5 4.28125 17.5H16.3438C16.4688 17.5 16.5938 17.5104 16.7188 17.5312H16.9062C18.3646 17.5729 19.5625 17.9062 20.5 18.5312C21.4375 19.1562 22.1146 19.875 22.5312 20.6875C22.9479 21.4792 23.1562 22.2812 23.1562 23.0938C23.1562 23.9271 22.9479 24.75 22.5312 25.5625C22.1354 26.3542 21.4583 27.0625 20.5 27.6875C19.5625 28.3125 18.3646 28.6458 16.9062 28.6875H8.03125C7.63542 28.7083 7.30208 28.8021 7.03125 28.9688C6.78125 29.1354 6.59375 29.3542 6.46875 29.625C6.34375 29.875 6.28125 30.0729 6.28125 30.2188V30.875C6.28125 31.1458 6.34375 31.3542 6.46875 31.5C6.61458 31.6458 6.88542 31.7083 7.28125 31.6875H20.9062C21.4896 31.6875 21.9792 31.8958 22.375 32.3125C22.7917 32.7083 23 33.1979 23 33.7812C23 34.3646 22.7917 34.8646 22.375 35.2812C21.9792 35.6771 21.4896 35.875 20.9062 35.875H5.59375C4.42708 35.875 3.53125 35.5938 2.90625 35.0312C2.30208 34.4479 1.98958 33.625 1.96875 32.5625V30.2188C1.96875 29.3646 2.16667 28.5312 2.5625 27.7188C2.97917 26.8854 3.65625 26.1562 4.59375 25.5312C5.55208 24.8854 6.76042 24.5417 8.21875 24.5H17.0938C17.4896 24.4792 17.8125 24.3958 18.0625 24.25C18.3333 24.0833 18.5312 23.9062 18.6562 23.7188C18.7812 23.5104 18.8438 23.3021 18.8438 23.0938C18.8438 22.8854 18.7812 22.6875 18.6562 22.5C18.5312 22.2917 18.3333 22.1146 18.0625 21.9688C17.8125 21.8021 17.4896 21.7083 17.0938 21.6875H4.28125C3.69792 21.6875 3.20833 21.4792 2.8125 21.0625C2.39583 20.6667 2.1875 20.1771 2.1875 19.5938Z" fill="#1E1E1E"/>
<defs>
<linearGradient id="paint0_linear_14_17" x1="103.892" y1="6" x2="85.3923" y2="38.0429" gradientUnits="userSpaceOnUse">
<stop stop-color="#FF0000"/>
<stop offset="1" stop-color="#160000" stop-opacity="0.98"/>
</linearGradient>
</defs>
</svg>
